<svg xmlns="http://www.w3.org/2000/svg" width="72.682" height="77.71" viewBox="0 0 72.682 77.71">
  <g id="Group_145" data-name="Group 145" transform="translate(-10377 -10342)">
    <path id="design-thinking" d="M13.643,57.65a1.177,1.177,0,0,1,1.025,2.12,6.385,6.385,0,0,1-3.5.525,12.023,12.023,0,0,1-2.227-.475,6.7,6.7,0,0,0,.1.9c.114.848.272,1.721.468,2.613a1.19,1.19,0,0,1-.152.873,9.169,9.169,0,0,0-1.05,3.366,2.727,2.727,0,0,0,.7,2.2,4.86,4.86,0,0,0,2.569,1.164,18.908,18.908,0,0,0,6.562-.221,41.132,41.132,0,0,0,7.5-2.063,20.414,20.414,0,0,0,5.246-2.848,9.268,9.268,0,0,0,2.531-4.43c.114-.323.221-.633.272-.759l.158-.43c.677-1.86,1.848-5.062,3.379-6.271a1.19,1.19,0,1,1,1.436,1.9c-.968.715-1.962,3.537-2.594,5.164-.12.335-.095.272-.152.437-.133.342-.2.532-.266.721a11.21,11.21,0,0,1-3.3,5.518,22.635,22.635,0,0,1-5.866,3.164c-.506.2-1.012.38-1.525.551a18.743,18.743,0,0,1-.082,2.31,19.143,19.143,0,0,1-.576,3.164,1.182,1.182,0,1,1-2.278-.633,16.655,16.655,0,0,0,.513-2.784c.044-.449.07-.911.076-1.373-1.392.38-2.765.683-4.063.918a21.066,21.066,0,0,1-7.41.215,7.068,7.068,0,0,1-3.8-1.822,4.974,4.974,0,0,1-1.379-4,11.156,11.156,0,0,1,1.164-3.987c-.158-.778-.3-1.582-.4-2.417q-.192-1.366-.247-2.746a.633.633,0,0,1,0-.108.683.683,0,0,1,0-.12c-.171-1.778-.19-3.512-.215-5.265v-.411l-2.721-.158h0a3.7,3.7,0,0,1-1.9-.582,3.379,3.379,0,0,1-1.2-1.361A3.955,3.955,0,0,1,0,48.367,5.967,5.967,0,0,1,1.025,45.3l2.917-5.948c1.424-2.924,1.411-3.278,1.348-4.835,0-.69-.063-1.576,0-2.9a22.148,22.148,0,0,1,.57-4.493,15.117,15.117,0,0,1,.981-2.848l-5.315-2.31a1.177,1.177,0,0,1-.633-1.55,1.082,1.082,0,0,1,.133-.221h0C13.681,2.951,27.976-1.8,40.069.578A33.538,33.538,0,0,1,58.217,11.019l.272.3-.095.063-1.848,1.278-.07-.076A31.222,31.222,0,0,0,39.638,2.887C28.647.723,15.592,4.995,3.828,20.4l5.062,2.2a1.456,1.456,0,0,1,.2.095,1.183,1.183,0,0,1,.4,1.62,11.972,11.972,0,0,0-1.342,3.36,20.161,20.161,0,0,0-.506,4.018c-.038,1.266,0,2.069,0,2.727.076,2,.095,2.531-1.595,5.961L3.126,46.354a1.208,1.208,0,0,1-.095.177,3.607,3.607,0,0,0-.677,1.9,1.607,1.607,0,0,0,.177.734,1.038,1.038,0,0,0,.373.43,1.335,1.335,0,0,0,.677.2h.095l3.373.2a1.019,1.019,0,0,1,.342-.057h.12l3.107.266a1.178,1.178,0,1,1-.19,2.348h-.063l-1.753-.108v.247c0,1.525.044,3.044.165,4.575a11.093,11.093,0,0,0,2.613.69,4.075,4.075,0,0,0,2.234-.3ZM65.418,22.783a33.019,33.019,0,0,1,1.747,6.9c1.576,11.346-2.974,23.477-16.984,31.7a1.063,1.063,0,0,1-.38.139,44.178,44.178,0,0,0,.316,5.005,38.88,38.88,0,0,0,2.2,9.03,1.177,1.177,0,1,1-2.2.829,41.132,41.132,0,0,1-2.341-9.568,48.156,48.156,0,0,1-.051-10.758,1.177,1.177,0,1,1,2.342.24c-.089.861-.158,1.709-.2,2.531C62.229,51.2,66.254,40.248,64.83,30.028a30.254,30.254,0,0,0-1.4-5.809Zm-30.09-6.708a5.164,5.164,0,0,1,3.322-2.392,5.233,5.233,0,0,1,3.423.494,5.7,5.7,0,0,1,2.449,2.348,5.151,5.151,0,0,1,.462,1.2,5.391,5.391,0,0,1,1.822.3,6.328,6.328,0,0,1,1.323.633l-2.253,1.6a2.822,2.822,0,0,0-.949-.139h0a5.575,5.575,0,0,1-1.088,1.943,1.152,1.152,0,1,1-1.759-1.481,2.531,2.531,0,0,0,.418-2.955,3.385,3.385,0,0,0-1.455-1.386,2.9,2.9,0,0,0-1.9-.291,3.323,3.323,0,0,0-2.272,2.2.867.867,0,0,1,0,.184V42.1a.968.968,0,0,1,.044.184c.335,2.012,1.2,2.98,2.183,3.253a3.392,3.392,0,0,0,2.778-.633,3.056,3.056,0,0,0,1.4-2.335c0-1.025-.74-2.183-2.753-3.208a1.159,1.159,0,1,1,1.057-2.063c2.221,1.133,3.385,2.531,3.8,3.93a3.911,3.911,0,0,0,1.9-1.531,5.29,5.29,0,0,0,.854-3.67,1.19,1.19,0,0,1,.57-1.266,6.328,6.328,0,0,0,1.949-1.671,3.847,3.847,0,0,0,.633-1.2l.633-.076a3.164,3.164,0,0,0,1.62-.57l.3-.215v.057a5.974,5.974,0,0,1-1.221,3.43,8.334,8.334,0,0,1-2.012,1.9,7.549,7.549,0,0,1-1.31,4.651,6.119,6.119,0,0,1-3.86,2.607,5.948,5.948,0,0,1-6.961,4.1,4.86,4.86,0,0,1-3.018-2.531,5.221,5.221,0,0,1-3.449,2.6,5.442,5.442,0,0,1-4.392-1.107A5.328,5.328,0,0,1,25.647,43.7a5.455,5.455,0,0,1-1.531-.291,7.151,7.151,0,0,1-4.664-5.619,6.36,6.36,0,0,1,.07-2.208,7.815,7.815,0,0,1-1.386-1.658,6.391,6.391,0,0,1-.981-3.411,6.1,6.1,0,0,1,1.234-3.582,8.473,8.473,0,0,1,1.943-1.9,5.815,5.815,0,0,1,0-.633A7.492,7.492,0,0,1,22,19.916a5.923,5.923,0,0,1,3.664-2.183h0a5.151,5.151,0,0,1,.171-.589,5.569,5.569,0,0,1,2.436-2.829A5.29,5.29,0,0,1,32,13.683a5.151,5.151,0,0,1,3.316,2.392ZM25.767,41.343a7.277,7.277,0,0,1,3.961-4.056,1.158,1.158,0,1,1,1.05,2.063c-2.12,1.082-2.936,2.322-2.936,3.4a2.848,2.848,0,0,0,1.2,2.177,3.164,3.164,0,0,0,2.531.633c1.076-.228,2.12-1.221,2.658-3.4V19.315c-.538-2.158-1.582-3.164-2.658-3.373a2.993,2.993,0,0,0-2.107.392,3.24,3.24,0,0,0-1.424,1.633A2.758,2.758,0,0,0,29.026,21a1.152,1.152,0,0,1-1.557,1.69,5.847,5.847,0,0,1-1.677-2.531,3.594,3.594,0,0,0-1.9,1.266,5.126,5.126,0,0,0-1.126,3.056,5.587,5.587,0,0,0,.057,1.012h0a1.19,1.19,0,0,1-.557,1.177,6.739,6.739,0,0,0-1.9,1.671,3.8,3.8,0,0,0-.778,2.2,4,4,0,0,0,.633,2.126,5.423,5.423,0,0,0,1.335,1.512,1.2,1.2,0,0,1,.456,1.373,4.2,4.2,0,0,0-.19,1.93,4.524,4.524,0,0,0,1.082,2.31,4.689,4.689,0,0,0,1.987,1.373,3.164,3.164,0,0,0,.873.171Zm.266-16.263a1.152,1.152,0,0,1,1.614,1.645,5.208,5.208,0,0,0-1.557,3.506,5.746,5.746,0,0,0,1.266,3.8,1.152,1.152,0,1,1-1.8,1.443,7.954,7.954,0,0,1-1.778-5.334,7.473,7.473,0,0,1,2.24-5.062Z" transform="translate(10377 10341.995)" fill="#3e441f" fill-rule="evenodd"/>
    <path id="design-thinking-2" data-name="design-thinking" d="M96.732,18.664l3.573,5.035a1.47,1.47,0,0,1-.341,2.063l-2.769,1.973L91.9,20.32l2.777-1.973a1.478,1.478,0,0,1,2.055.341ZM79.613,40.143l-5.425.731c-4.255.568-4.369,1.4-2.615-2.3l2.761-5.839h0L90.5,21.262l5.295,7.423L79.613,40.152ZM75.236,34l3.476,4.873-3.565.479c-2.794.374-2.875.918-1.722-1.519Z" transform="translate(10349.097 10331.521)" fill="#3e441f" fill-rule="evenodd"/>
  </g>
</svg>
