<svg xmlns="http://www.w3.org/2000/svg" width="84.723" height="91.266" viewBox="0 0 84.723 91.266">
  <path id="solution" d="M39.824,27.849ZM63.586,2.67A2.922,2.922,0,0,1,64.564.7,2.834,2.834,0,0,1,66.6,0h.2a2.867,2.867,0,0,1,2.494,2.988h0v.143l-.417,6.086h0V9.4a2.933,2.933,0,0,1-.956,1.8,2.845,2.845,0,0,1-2.032.692h-.2a2.823,2.823,0,0,1-1.758-.912,2.856,2.856,0,0,1-.7-2.032h0a.582.582,0,0,1,0-.143L63.63,2.7ZM31.728,11.942A2.851,2.851,0,0,1,35.76,7.91l4.394,4.46a2.856,2.856,0,0,1,0,4.032,2.889,2.889,0,0,1-2.021.824,2.845,2.845,0,0,1-2.01-.846l-4.394-4.46ZM22.939,43a2.823,2.823,0,0,1,.055-5.647h6.24a2.834,2.834,0,0,1,2.01.868,2.79,2.79,0,0,1,.824,2.032h0v.1a2.823,2.823,0,0,1-.846,1.857,2.878,2.878,0,0,1-2.032.813h-.11l-6.174-.066Zm78.954-5.383h.088a2.834,2.834,0,0,1,1.944.714,2.878,2.878,0,0,1,.956,1.966h0v.088a2.834,2.834,0,0,1-.714,1.944,2.878,2.878,0,0,1-1.966.956l-6.229.384a2.856,2.856,0,1,1-.341-5.7c2.087-.131,4.175-.274,6.262-.384ZM90.644,12.26a2.834,2.834,0,0,1,3.977-.6h0a2.812,2.812,0,0,1,1.1,1.857,2.922,2.922,0,0,1-.527,2.12L91.5,20.664a2.867,2.867,0,0,1-3.988.615,2.9,2.9,0,0,1-1.1-1.868A2.823,2.823,0,0,1,87,17.3l3.7-5.042ZM71.551,85.392a12.8,12.8,0,0,1-4.856,4.46,12.15,12.15,0,0,1-5.416,1.406,10.986,10.986,0,0,1-5.493-1.318,11.194,11.194,0,0,1-3.153-2.571L71.5,85.392Zm2.2-10.4v1.648A17.719,17.719,0,0,1,73.7,79.1l-.45,1.758-22.861,2.34-.352-.934-.736-3.669v-1.1l24.509-2.5ZM53.139,43.416a8.206,8.206,0,0,1,2.834,1.846,20.871,20.871,0,0,1,1.846,1.977,75.8,75.8,0,0,1,6.4-8.129,54.28,54.28,0,0,1,6.712-6.438l.527-.176,5.746.253-1.2,1.208a101.661,101.661,0,0,0-9.239,10.909,125.626,125.626,0,0,0-9.195,13.6,36.044,36.044,0,0,0-4.746-8.36,24.883,24.883,0,0,0-5.493-5.493l5.757-1.23ZM40.066,27.465a26.2,26.2,0,0,1,5.493-5.976,24.74,24.74,0,0,1,7.2-4.021l.22-.066a26.156,26.156,0,0,1,6.009-1.318,27.464,27.464,0,0,1,6.515.132A28.266,28.266,0,0,1,77.33,20.61,26.64,26.64,0,0,1,83.493,26.1a24.421,24.421,0,0,1,3.977,7.042,27.353,27.353,0,0,1,1.186,4.482,25.266,25.266,0,0,1,.384,4.933h0a25.508,25.508,0,0,1-.67,5.493,28.343,28.343,0,0,1-1.846,5.339c-1.725,3.735-4.548,7.294-7.327,10.8-1.362,1.725-2.713,3.439-3.878,5.13a3.493,3.493,0,0,1-3.3,1.483L51.48,72.934a3.493,3.493,0,0,1-3.713-2.516,30.232,30.232,0,0,0-1.736-4.57,18.368,18.368,0,0,0-2.087-3.428c-.989-1.23-2-2.494-3.01-4a30.355,30.355,0,0,1-2.867-5.273l-.066-.2a31.54,31.54,0,0,1-1.758-5.844,26.893,26.893,0,0,1-.428-6.306,26.487,26.487,0,0,1,1.154-6.46,30.759,30.759,0,0,1,2.79-6.427v-.066l.253-.384Z" transform="translate(-20.16 0.004)" fill="#3e441f" fill-rule="evenodd"/>
</svg>
