<svg xmlns="http://www.w3.org/2000/svg" width="79.984" height="75.46" viewBox="0 0 79.984 75.46">
  <g id="Group_195" data-name="Group 195" transform="translate(-10233 -10021)">
    <path id="team-collaboration" d="M113.881,115.048l1.682,1.772a1.172,1.172,0,0,1-.042,1.651l-1.426,1.354a9.2,9.2,0,0,1,.8,2.323l1.8.045a1.171,1.171,0,0,1,1.139,1.2l-.061,2.442a1.172,1.172,0,0,1-1.2,1.137l-1.965-.05a9.3,9.3,0,0,1-1.076,2.209l1.244,1.308a1.172,1.172,0,0,1-.042,1.651l-1.772,1.682a1.172,1.172,0,0,1-1.651-.042l-1.354-1.425a9.283,9.283,0,0,1-2.323.8l-.047,1.8a1.172,1.172,0,0,1-1.2,1.139l-2.44-.062a1.172,1.172,0,0,1-1.137-1.2l.05-1.965a9.3,9.3,0,0,1-2.209-1.076l-1.308,1.242a1.172,1.172,0,0,1-1.653-.042l-1.681-1.77a1.169,1.169,0,0,1,.042-1.651l1.425-1.354a9.2,9.2,0,0,1-.8-2.323l-1.8-.045a1.174,1.174,0,0,1-1.14-1.2l.064-2.442a1.169,1.169,0,0,1,1.2-1.137l1.965.05a9.314,9.314,0,0,1,1.076-2.21L96.8,117.557a1.172,1.172,0,0,1,.042-1.651l1.77-1.682a1.169,1.169,0,0,1,1.651.042l1.356,1.425a9.223,9.223,0,0,1,2.321-.8l.047-1.8a1.172,1.172,0,0,1,1.2-1.139l2.44.062a1.174,1.174,0,0,1,1.139,1.2l-.05,1.965a9.239,9.239,0,0,1,2.209,1.075l1.306-1.24a1.174,1.174,0,0,1,1.654.042l0,0Zm-7.97,4.151a4.8,4.8,0,1,1-4.921,4.676A4.8,4.8,0,0,1,105.911,119.2Z" transform="translate(10167.338 9943.771)" fill="#3e441f" fill-rule="evenodd"/>
    <path id="team-collaboration-2" data-name="team-collaboration" d="M15.622,37.222a1.831,1.831,0,0,1-3.3-1.584,30.21,30.21,0,0,1,8.2-10.4,1.829,1.829,0,1,1,2.309,2.837,26.372,26.372,0,0,0-7.213,9.148ZM33.033,4.911C36.635.461,40.786-1.961,43.9,2c3.584.187,5.119,5.625,2.654,8.308a.986.986,0,0,1,.486.112.823.823,0,0,1,.4.506,2.74,2.74,0,0,1-.166,1.42c-.164.715-.347,1.5-1.162,1.459l-.131-.014c-.03,1.481-.751,2.162-1.7,3.051.18.262.361.528.558.781a2.345,2.345,0,0,0,.358.394c1.628,1.365,4.691,1.662,6.417,2.626a4.576,4.576,0,0,1,1.467,1.24,7.48,7.48,0,0,1,1.381,4.11,1.431,1.431,0,0,1,.042.334.4.4,0,0,1-.4.4H27.238a.4.4,0,0,1-.4-.4,1.461,1.461,0,0,1,.044-.339,7.489,7.489,0,0,1,1.379-4.105,4.612,4.612,0,0,1,1.467-1.24c1.707-.953,4.623-1.254,6.36-2.579a10.52,10.52,0,0,0,.709-1.626A3.722,3.722,0,0,1,35.457,13.8l-.081,0a1.092,1.092,0,0,1-.547-.144,1.578,1.578,0,0,1-.689-1.1c-.12-.562-.264-2.184.511-2.5-.1-1.776.206-4.59-1.618-5.143ZM43.838,17.27a4.375,4.375,0,0,1-2.993,1.3A4.812,4.812,0,0,1,37.666,17.2l-.378-.33a8.732,8.732,0,0,1-.784,1.676,4.638,4.638,0,0,0,8.355.02A9.119,9.119,0,0,1,43.838,17.27ZM43.421,5.333a3.806,3.806,0,0,1-2.542,1.139c-.25.045-.5.075-.74.106a5.29,5.29,0,0,0-2.715.948,2.608,2.608,0,0,0-1.029,1.287,3.256,3.256,0,0,0-.039,1.778.383.383,0,0,1-.014.2.359.359,0,0,1-.459.212c-.287-.1-.908-.436-1.062-.067a4.706,4.706,0,0,0,.02,1.468c.109.511.3.8.845.628l.1-.016a.354.354,0,0,1,.364.348,3.567,3.567,0,0,0,1.629,2.987l.366.317a4.125,4.125,0,0,0,2.7,1.183,3.717,3.717,0,0,0,2.581-1.176l.37-.351c.915-.859,1.59-1.493,1.461-3.037a.358.358,0,0,1,.553-.328.756.756,0,0,0,.345.133c.3.016.467-1.133.572-1.44a1.01,1.01,0,0,0,.039-.517c-.036-.116-.139-.122-.245-.112a1.247,1.247,0,0,0-.587.253.357.357,0,0,1-.587-.33A6.846,6.846,0,0,0,45.11,6.83a3.51,3.51,0,0,0-1.586-1.575l-.1.078ZM58.5,46.647c3.6-4.452,7.753-6.872,10.871-2.913,3.584.187,5.119,5.627,2.654,8.308a.971.971,0,0,1,.486.114.823.823,0,0,1,.4.506,2.72,2.72,0,0,1-.166,1.418c-.164.715-.345,1.5-1.162,1.461l-.13-.016c-.031,1.481-.753,2.162-1.7,3.051.18.264.361.528.558.781a2.345,2.345,0,0,0,.358.394c1.628,1.365,4.691,1.662,6.417,2.626a4.579,4.579,0,0,1,1.467,1.24,7.48,7.48,0,0,1,1.381,4.11,1.43,1.43,0,0,1,.042.334.4.4,0,0,1-.4.4H52.71a.4.4,0,0,1-.4-.4,1.461,1.461,0,0,1,.044-.339,7.478,7.478,0,0,1,1.381-4.105,4.61,4.61,0,0,1,1.465-1.24c1.707-.953,4.623-1.254,6.36-2.579a10.52,10.52,0,0,0,.709-1.626,3.724,3.724,0,0,1-1.337-2.64l-.081,0a1.11,1.11,0,0,1-.547-.145,1.578,1.578,0,0,1-.689-1.1c-.12-.561-.264-2.182.511-2.5-.1-1.778.206-4.591-1.618-5.143ZM69.31,59a4.372,4.372,0,0,1-2.992,1.3,4.81,4.81,0,0,1-3.181-1.362l-.378-.331a8.732,8.732,0,0,1-.784,1.676,4.638,4.638,0,0,0,8.355.02A9.118,9.118,0,0,1,69.31,59Zm-.417-11.937a3.806,3.806,0,0,1-2.542,1.139c-.25.045-.5.077-.74.106a5.3,5.3,0,0,0-2.715.95,2.613,2.613,0,0,0-1.029,1.286,3.256,3.256,0,0,0-.039,1.778.367.367,0,0,1-.014.2.358.358,0,0,1-.458.212c-.289-.1-.909-.436-1.064-.067a4.716,4.716,0,0,0,.02,1.47c.109.509.3.794.845.626l.1-.016a.357.357,0,0,1,.366.348,3.558,3.558,0,0,0,1.629,2.987l.366.317a4.122,4.122,0,0,0,2.7,1.183A3.716,3.716,0,0,0,68.9,58.41l.37-.35c.915-.861,1.59-1.5,1.461-3.038a.359.359,0,0,1,.555-.328.734.734,0,0,0,.344.133c.3.016.469-1.133.572-1.44a1.01,1.01,0,0,0,.039-.517c-.036-.116-.139-.122-.245-.112a1.254,1.254,0,0,0-.587.253.353.353,0,0,1-.3.084.359.359,0,0,1-.292-.414,6.846,6.846,0,0,0-.236-4.116A3.517,3.517,0,0,0,69,46.989l-.1.078Zm-62.7-.42c3.6-4.452,7.753-6.872,10.871-2.913,3.582.187,5.118,5.627,2.654,8.308a.979.979,0,0,1,.486.114.829.829,0,0,1,.4.506,2.736,2.736,0,0,1-.166,1.418c-.164.715-.347,1.5-1.162,1.461l-.131-.016c-.03,1.481-.753,2.162-1.7,3.051.18.264.359.528.558.781a2.219,2.219,0,0,0,.358.394c1.628,1.365,4.691,1.662,6.417,2.626a4.6,4.6,0,0,1,1.467,1.24,7.493,7.493,0,0,1,1.381,4.11,1.519,1.519,0,0,1,.042.334.4.4,0,0,1-.4.4H.4a.4.4,0,0,1-.4-.4,1.462,1.462,0,0,1,.044-.339,7.476,7.476,0,0,1,1.379-4.105,4.633,4.633,0,0,1,1.467-1.24C4.6,61.424,7.513,61.122,9.25,59.8a10.365,10.365,0,0,0,.708-1.626,3.717,3.717,0,0,1-1.336-2.64l-.081,0a1.11,1.11,0,0,1-.547-.145,1.573,1.573,0,0,1-.689-1.1c-.12-.561-.264-2.182.511-2.5-.1-1.778.2-4.591-1.618-5.143ZM17,59a4.369,4.369,0,0,1-2.992,1.3,4.809,4.809,0,0,1-3.179-1.362l-.38-.331a8.634,8.634,0,0,1-.783,1.676,4.638,4.638,0,0,0,8.355.02A9.246,9.246,0,0,1,17,59Zm-.416-11.937a3.809,3.809,0,0,1-2.542,1.139c-.252.045-.5.077-.742.106a5.29,5.29,0,0,0-2.714.95,2.616,2.616,0,0,0-1.031,1.286,3.257,3.257,0,0,0-.037,1.778.383.383,0,0,1-.014.2.359.359,0,0,1-.459.212c-.287-.1-.908-.436-1.062-.067A4.716,4.716,0,0,0,8,54.141c.108.509.3.794.845.626l.1-.016a.355.355,0,0,1,.364.348,3.565,3.565,0,0,0,1.629,2.987l.366.317a4.122,4.122,0,0,0,2.7,1.183A3.72,3.72,0,0,0,16.59,58.41l.37-.35c.915-.861,1.59-1.5,1.461-3.038a.358.358,0,0,1,.553-.328.733.733,0,0,0,.345.133c.3.016.467-1.133.572-1.44a1.01,1.01,0,0,0,.039-.517c-.036-.116-.139-.122-.245-.112a1.247,1.247,0,0,0-.587.253.357.357,0,0,1-.587-.33,6.859,6.859,0,0,0-.236-4.116,3.525,3.525,0,0,0-1.586-1.575l-.1.078ZM58.759,28.391a1.827,1.827,0,0,1,2.35-2.8c.37.311.661.562.878.759.264.237.542.509.845.8a30.3,30.3,0,0,1,3.043,3.484,30.927,30.927,0,0,1,2.475,3.915,1.832,1.832,0,1,1-3.24,1.709,25.764,25.764,0,0,0-2.171-3.426,26.608,26.608,0,0,0-2.673-3.068c-.219-.219-.47-.448-.74-.7-.323-.291-.581-.516-.765-.673ZM49.043,70.425A1.83,1.83,0,1,1,50.206,73.9a28.9,28.9,0,0,1-4.726,1.169,29.985,29.985,0,0,1-4.871.4,30.154,30.154,0,0,1-9.775-1.623,1.834,1.834,0,1,1,1.187-3.471,26.695,26.695,0,0,0,12.865,1.083,25.571,25.571,0,0,0,4.157-1.023Z" transform="translate(10233 10021)" fill="#3e441f" fill-rule="evenodd"/>
  </g>
</svg>
