<svg xmlns="http://www.w3.org/2000/svg" width="74.957" height="75.221" viewBox="0 0 74.957 75.221">
  <g id="bodybuilding-muscles" transform="translate(0)">
    <path id="Path_325" data-name="Path 325" d="M5.2,34.241C2.008,48.095-.373,61.7.049,75.226,4.5,74.583,10.56,70.39,16.327,63.5c13.86,7.817,27.156,6.085,40.03-2.871C72.831,58.2,78.439,51.064,72.874,39.089L51.809,8.83c-1.084-1.555-.575-.912-2.357-2.461L45.418,2.861C43.74.186,41.61-.53,39.106.382L33.419,2.243c-3.655,1.432-4.708,3.4-3.208,5.889l1.732,2.792c.924,2.326,2.369,3.4,4.7,2.326l.343-.11a.85.85,0,0,1-.031-.5c.122-.526.245-1.022.355-1.469a9.389,9.389,0,0,0,.441-2.234c-.049-.116-.563.392-2.118,1.016A.871.871,0,1,1,34.98,8.34c2.712-1.09,3.887-1.286,4.389-.049.275.692.031,1.69-.367,3.3-.073.294-.153.612-.233.967l.233-.08-.275.1c5.491-2.069,4.585,1.047,8.191,6.465,4.5,6.765,6.9,14.827,6.942,24.352-8.344-7.034-17.894-6.789-28.2-1.977-5.13-5.95-12.048-8.136-20.465-7.181Z" transform="translate(0 -0.005)" fill="#3e441f" fill-rule="evenodd"/>
  </g>
</svg>
